<?xml version="1.0" encoding="utf-8"?>
<!-- Generator: Adobe Illustrator 21.1.0, SVG Export Plug-In . SVG Version: 6.00 Build 0)  -->
<svg version="1.1" id="Layer_1" xmlns="http://www.w3.org/2000/svg" xmlns:xlink="http://www.w3.org/1999/xlink" x="0px" y="0px"
	 viewBox="0 0 124 124" style="enable-background:new 0 0 124 124;" xml:space="preserve">
<style type="text/css">
	.st0{fill:#577D91;}
	.st1{fill:none;stroke:#ED6C56;stroke-width:2;stroke-linecap:round;stroke-linejoin:round;}
	.st2{fill:none;stroke:#FCF1D1;stroke-width:2;stroke-linecap:round;stroke-linejoin:round;}
	.st3{fill:none;stroke:#FCF1D1;stroke-width:2;}
	.st4{fill:none;stroke:#FCF1D1;stroke-width:2;stroke-linejoin:round;}
</style>
<circle class="st0" cx="62" cy="62" r="60"/>
<g>
	<path class="st1" d="M80.1,52.2c1.1,0,2.1,0,3.2,0"/>
	<path class="st1" d="M63.1,52.2c3.9,0,7.8,0,11.8,0"/>
	<rect x="36" y="43.7" class="st2" width="53.1" height="31.7"/>
	<path class="st3" d="M93.4,80.6V41.1c0-1.4-0.9-2.5-2.1-2.5H33.6c-1.1,0-2.1,1.1-2.1,2.5v39.5H93.4z"/>
	<path class="st3" d="M29.5,80.7v3.5c0,1.4,0.9,2.5,2.1,2.5h61.9c1.1,0,2.1-1.1,2.1-2.5v-3.5H29.5z"/>
	<polygon class="st4" points="56.6,83.7 68.4,83.7 69.8,80.6 55.2,80.6 	"/>
</g>
</svg>
